<svg width="90" height="72" viewBox="0 0 90 72" fill="none" xmlns="http://www.w3.org/2000/svg">
<path d="M29.4 71.8C23.9333 71.8 19.0333 70.4 14.7 67.6C10.4333 64.8 7.03333 60.7333 4.5 55.4C2.03333 50.0667 0.8 43.6 0.8 36C0.8 28.4 2.03333 21.9333 4.5 16.6C7.03333 11.2667 10.4333 7.2 14.7 4.4C19.0333 1.6 23.9333 0.2 29.4 0.2C34.8 0.2 39.6667 1.6 44 4.4C48.3333 7.2 51.7333 11.2667 54.2 16.6C56.6667 21.9333 57.9 28.4 57.9 36C57.9 43.6 56.6667 50.0667 54.2 55.4C51.7333 60.7333 48.3333 64.8 44 67.6C39.6667 70.4 34.8 71.8 29.4 71.8ZM29.4 62.9C33.0667 62.9 36.2667 61.9 39 59.9C41.8 57.9 43.9667 54.9 45.5 50.9C47.1 46.9 47.9 41.9333 47.9 36C47.9 30.0667 47.1 25.1 45.5 21.1C43.9667 17.1 41.8 14.1 39 12.1C36.2667 10.1 33.0667 9.1 29.4 9.1C25.7333 9.1 22.5 10.1 19.7 12.1C16.9 14.1 14.7 17.1 13.1 21.1C11.5667 25.1 10.8 30.0667 10.8 36C10.8 41.9333 11.5667 46.9 13.1 50.9C14.7 54.9 16.9 57.9 19.7 59.9C22.5 61.9 25.7333 62.9 29.4 62.9ZM79.2992 71V5L83.5992 9.7H63.4992V0.999995H89.1992V71H79.2992Z" fill="#1A68C4" fill-opacity="0.5"/>
</svg>
