<svg width="205" height="147" viewBox="0 0 205 147" fill="none" xmlns="http://www.w3.org/2000/svg">
<path d="M46.8828 0.25C60.75 0.25 71.5898 5.19792 79.4023 15.0938C88.7122 26.8125 93.3672 46.2461 93.3672 73.3945C93.3672 100.478 88.6797 119.944 79.3047 131.793C71.5573 141.559 60.75 146.441 46.8828 146.441C32.9505 146.441 21.7201 141.103 13.1914 130.426C4.66276 119.684 0.398438 100.576 0.398438 73.1016C0.398438 46.1484 5.08594 26.7474 14.4609 14.8984C22.2083 5.13281 33.0156 0.25 46.8828 0.25ZM46.8828 23.0039C43.5625 23.0039 40.6003 24.0781 37.9961 26.2266C35.3919 28.3099 33.3737 32.0859 31.9414 37.5547C30.0534 44.651 29.1094 56.5977 29.1094 73.3945C29.1094 90.1914 29.9557 101.747 31.6484 108.062C33.3411 114.312 35.457 118.479 37.9961 120.562C40.6003 122.646 43.5625 123.688 46.8828 123.688C50.2031 123.688 53.1654 122.646 55.7695 120.562C58.3737 118.414 60.3919 114.605 61.8242 109.137C63.7122 102.105 64.6562 90.1914 64.6562 73.3945C64.6562 56.5977 63.8099 45.0742 62.1172 38.8242C60.4245 32.5091 58.276 28.3099 55.6719 26.2266C53.1328 24.0781 50.2031 23.0039 46.8828 23.0039ZM204.5 118.512V144H108.309C109.35 134.365 112.475 125.25 117.684 116.656C122.892 107.997 133.178 96.5391 148.543 82.2812C160.913 70.7578 168.497 62.9453 171.297 58.8438C175.073 53.1797 176.961 47.5807 176.961 42.0469C176.961 35.9271 175.301 31.2396 171.98 27.9844C168.725 24.6641 164.201 23.0039 158.406 23.0039C152.677 23.0039 148.12 24.7292 144.734 28.1797C141.349 31.6302 139.396 37.3594 138.875 45.3672L111.531 42.6328C113.159 27.5286 118.27 16.6888 126.863 10.1133C135.457 3.53776 146.199 0.25 159.09 0.25C173.217 0.25 184.318 4.05859 192.391 11.6758C200.464 19.293 204.5 28.7656 204.5 40.0938C204.5 46.5391 203.328 52.6914 200.984 58.5508C198.706 64.3451 195.06 70.4323 190.047 76.8125C186.727 81.0443 180.737 87.1315 172.078 95.0742C163.419 103.017 157.918 108.29 155.574 110.895C153.296 113.499 151.44 116.038 150.008 118.512H204.5Z" fill="#1A68C4" fill-opacity="0.2"/>
</svg>
