<svg width="105" height="65" viewBox="0 0 105 65" fill="none" xmlns="http://www.w3.org/2000/svg">
<path d="M26.06 64.72C21.14 64.72 16.73 63.46 12.83 60.94C8.99 58.42 5.93 54.76 3.65 49.96C1.43 45.16 0.32 39.34 0.32 32.5C0.32 25.66 1.43 19.84 3.65 15.04C5.93 10.24 8.99 6.58 12.83 4.06C16.73 1.54 21.14 0.28 26.06 0.28C30.92 0.28 35.3 1.54 39.2 4.06C43.1 6.58 46.16 10.24 48.38 15.04C50.6 19.84 51.71 25.66 51.71 32.5C51.71 39.34 50.6 45.16 48.38 49.96C46.16 54.76 43.1 58.42 39.2 60.94C35.3 63.46 30.92 64.72 26.06 64.72ZM26.06 56.71C29.36 56.71 32.24 55.81 34.7 54.01C37.22 52.21 39.17 49.51 40.55 45.91C41.99 42.31 42.71 37.84 42.71 32.5C42.71 27.16 41.99 22.69 40.55 19.09C39.17 15.49 37.22 12.79 34.7 10.99C32.24 9.19 29.36 8.29 26.06 8.29C22.76 8.29 19.85 9.19 17.33 10.99C14.81 12.79 12.83 15.49 11.39 19.09C10.01 22.69 9.32 27.16 9.32 32.5C9.32 37.84 10.01 42.31 11.39 45.91C12.83 49.51 14.81 52.21 17.33 54.01C19.85 55.81 22.76 56.71 26.06 56.71ZM59.3593 64V57.88L85.0093 33.13C87.2893 30.97 88.9693 29.08 90.0493 27.46C91.1893 25.78 91.9393 24.25 92.2993 22.87C92.7193 21.43 92.9293 20.05 92.9293 18.73C92.9293 15.49 91.7893 12.94 89.5093 11.08C87.2293 9.22 83.8993 8.29 79.5193 8.29C76.1593 8.29 73.1293 8.86 70.4293 10C67.7293 11.08 65.3893 12.79 63.4093 15.13L57.2893 9.81999C59.6893 6.75999 62.8993 4.42 66.9193 2.8C70.9993 1.12 75.4693 0.28 80.3293 0.28C84.7093 0.28 88.5193 0.999999 91.7593 2.44C94.9993 3.82 97.4893 5.83 99.2293 8.47C101.029 11.11 101.929 14.23 101.929 17.83C101.929 19.87 101.659 21.88 101.119 23.86C100.579 25.84 99.5593 27.94 98.0593 30.16C96.5593 32.38 94.3993 34.87 91.5793 37.63L68.7193 59.68L66.5593 56.17H104.629V64H59.3593Z" fill="#1A68C4" fill-opacity="0.5"/>
</svg>
