<svg width="206" height="147" viewBox="0 0 206 147" fill="none" xmlns="http://www.w3.org/2000/svg">
<path d="M46.8828 0.25C60.75 0.25 71.5898 5.19792 79.4023 15.0938C88.7122 26.8125 93.3672 46.2461 93.3672 73.3945C93.3672 100.478 88.6797 119.944 79.3047 131.793C71.5573 141.559 60.75 146.441 46.8828 146.441C32.9505 146.441 21.7201 141.103 13.1914 130.426C4.66276 119.684 0.398438 100.576 0.398438 73.1016C0.398438 46.1484 5.08594 26.7474 14.4609 14.8984C22.2083 5.13281 33.0156 0.25 46.8828 0.25ZM46.8828 23.0039C43.5625 23.0039 40.6003 24.0781 37.9961 26.2266C35.3919 28.3099 33.3737 32.0859 31.9414 37.5547C30.0534 44.651 29.1094 56.5977 29.1094 73.3945C29.1094 90.1914 29.9557 101.747 31.6484 108.062C33.3411 114.312 35.457 118.479 37.9961 120.562C40.6003 122.646 43.5625 123.688 46.8828 123.688C50.2031 123.688 53.1654 122.646 55.7695 120.562C58.3737 118.414 60.3919 114.605 61.8242 109.137C63.7122 102.105 64.6562 90.1914 64.6562 73.3945C64.6562 56.5977 63.8099 45.0742 62.1172 38.8242C60.4245 32.5091 58.276 28.3099 55.6719 26.2266C53.1328 24.0781 50.2031 23.0039 46.8828 23.0039ZM110.848 106.012L137.41 102.789C138.257 109.56 140.535 114.736 144.246 118.316C147.957 121.897 152.449 123.688 157.723 123.688C163.387 123.688 168.139 121.539 171.98 117.242C175.887 112.945 177.84 107.151 177.84 99.8594C177.84 92.9583 175.984 87.4896 172.273 83.4531C168.562 79.4167 164.038 77.3984 158.699 77.3984C155.184 77.3984 150.984 78.082 146.102 79.4492L149.129 57.0859C156.551 57.2812 162.215 55.6862 166.121 52.3008C170.027 48.8503 171.98 44.293 171.98 38.6289C171.98 33.8112 170.548 29.9701 167.684 27.1055C164.819 24.2409 161.01 22.8086 156.258 22.8086C151.57 22.8086 147.566 24.4362 144.246 27.6914C140.926 30.9466 138.908 35.6992 138.191 41.9492L112.898 37.6523C114.656 28.9935 117.293 22.0924 120.809 16.9492C124.389 11.7409 129.337 7.67188 135.652 4.74219C142.033 1.7474 149.161 0.25 157.039 0.25C170.516 0.25 181.323 4.54688 189.461 13.1406C196.167 20.1719 199.52 28.1146 199.52 36.9688C199.52 49.5339 192.651 59.5599 178.914 67.0469C187.117 68.8047 193.66 72.7435 198.543 78.8633C203.491 84.9831 205.965 92.3724 205.965 101.031C205.965 113.596 201.375 124.306 192.195 133.16C183.016 142.014 171.59 146.441 157.918 146.441C144.962 146.441 134.22 142.73 125.691 135.309C117.163 127.822 112.215 118.056 110.848 106.012Z" fill="#1A68C4" fill-opacity="0.2"/>
</svg>
