<svg width="103" height="65" viewBox="0 0 103 65" fill="none" xmlns="http://www.w3.org/2000/svg">
<path d="M26.06 64.72C21.14 64.72 16.73 63.46 12.83 60.94C8.99 58.42 5.93 54.76 3.65 49.96C1.43 45.16 0.32 39.34 0.32 32.5C0.32 25.66 1.43 19.84 3.65 15.04C5.93 10.24 8.99 6.58 12.83 4.06C16.73 1.54 21.14 0.28 26.06 0.28C30.92 0.28 35.3 1.54 39.2 4.06C43.1 6.58 46.16 10.24 48.38 15.04C50.6 19.84 51.71 25.66 51.71 32.5C51.71 39.34 50.6 45.16 48.38 49.96C46.16 54.76 43.1 58.42 39.2 60.94C35.3 63.46 30.92 64.72 26.06 64.72ZM26.06 56.71C29.36 56.71 32.24 55.81 34.7 54.01C37.22 52.21 39.17 49.51 40.55 45.91C41.99 42.31 42.71 37.84 42.71 32.5C42.71 27.16 41.99 22.69 40.55 19.09C39.17 15.49 37.22 12.79 34.7 10.99C32.24 9.19 29.36 8.29 26.06 8.29C22.76 8.29 19.85 9.19 17.33 10.99C14.81 12.79 12.83 15.49 11.39 19.09C10.01 22.69 9.32 27.16 9.32 32.5C9.32 37.84 10.01 42.31 11.39 45.91C12.83 49.51 14.81 52.21 17.33 54.01C19.85 55.81 22.76 56.71 26.06 56.71ZM78.7304 64.72C74.2904 64.72 69.9704 64.03 65.7704 62.65C61.6304 61.27 58.2404 59.41 55.6004 57.07L59.7404 49.96C61.8404 51.94 64.5704 53.56 67.9304 54.82C71.2904 56.08 74.8904 56.71 78.7304 56.71C83.4104 56.71 87.0404 55.72 89.6204 53.74C92.2604 51.7 93.5804 48.97 93.5804 45.55C93.5804 42.25 92.3204 39.61 89.8004 37.63C87.3404 35.59 83.4104 34.57 78.0104 34.57H72.9704V28.27L91.6904 5.22999L92.9504 8.83H58.4804V0.999996H100.06V7.12L81.4304 30.07L76.7504 27.28H79.7204C87.3404 27.28 93.0404 28.99 96.8204 32.41C100.66 35.83 102.58 40.18 102.58 45.46C102.58 49 101.71 52.24 99.9704 55.18C98.2304 58.12 95.5904 60.46 92.0504 62.2C88.5704 63.88 84.1304 64.72 78.7304 64.72Z" fill="#1A68C4" fill-opacity="0.5"/>
</svg>
