<svg width="210" height="147" viewBox="0 0 210 147" fill="none" xmlns="http://www.w3.org/2000/svg">
<path d="M46.8828 0.25C60.75 0.25 71.5898 5.19792 79.4023 15.0938C88.7122 26.8125 93.3672 46.2461 93.3672 73.3945C93.3672 100.478 88.6797 119.944 79.3047 131.793C71.5573 141.559 60.75 146.441 46.8828 146.441C32.9505 146.441 21.7201 141.103 13.1914 130.426C4.66276 119.684 0.398438 100.576 0.398438 73.1016C0.398438 46.1484 5.08594 26.7474 14.4609 14.8984C22.2083 5.13281 33.0156 0.25 46.8828 0.25ZM46.8828 23.0039C43.5625 23.0039 40.6003 24.0781 37.9961 26.2266C35.3919 28.3099 33.3737 32.0859 31.9414 37.5547C30.0534 44.651 29.1094 56.5977 29.1094 73.3945C29.1094 90.1914 29.9557 101.747 31.6484 108.062C33.3411 114.312 35.457 118.479 37.9961 120.562C40.6003 122.646 43.5625 123.688 46.8828 123.688C50.2031 123.688 53.1654 122.646 55.7695 120.562C58.3737 118.414 60.3919 114.605 61.8242 109.137C63.7122 102.105 64.6562 90.1914 64.6562 73.3945C64.6562 56.5977 63.8099 45.0742 62.1172 38.8242C60.4245 32.5091 58.276 28.3099 55.6719 26.2266C53.1328 24.0781 50.2031 23.0039 46.8828 23.0039ZM165.633 144V115.191H107.039V91.168L169.148 0.25H192.195V91.0703H209.969V115.191H192.195V144H165.633ZM165.633 91.0703V42.1445L132.723 91.0703H165.633Z" fill="#1A68C4" fill-opacity="0.1"/>
</svg>
