<svg width="116" height="65" viewBox="0 0 116 65" fill="none" xmlns="http://www.w3.org/2000/svg">
<path d="M26.06 64.72C21.14 64.72 16.73 63.46 12.83 60.94C8.99 58.42 5.93 54.76 3.65 49.96C1.43 45.16 0.32 39.34 0.32 32.5C0.32 25.66 1.43 19.84 3.65 15.04C5.93 10.24 8.99 6.58 12.83 4.06C16.73 1.54 21.14 0.28 26.06 0.28C30.92 0.28 35.3 1.54 39.2 4.06C43.1 6.58 46.16 10.24 48.38 15.04C50.6 19.84 51.71 25.66 51.71 32.5C51.71 39.34 50.6 45.16 48.38 49.96C46.16 54.76 43.1 58.42 39.2 60.94C35.3 63.46 30.92 64.72 26.06 64.72ZM26.06 56.71C29.36 56.71 32.24 55.81 34.7 54.01C37.22 52.21 39.17 49.51 40.55 45.91C41.99 42.31 42.71 37.84 42.71 32.5C42.71 27.16 41.99 22.69 40.55 19.09C39.17 15.49 37.22 12.79 34.7 10.99C32.24 9.19 29.36 8.29 26.06 8.29C22.76 8.29 19.85 9.19 17.33 10.99C14.81 12.79 12.83 15.49 11.39 19.09C10.01 22.69 9.32 27.16 9.32 32.5C9.32 37.84 10.01 42.31 11.39 45.91C12.83 49.51 14.81 52.21 17.33 54.01C19.85 55.81 22.76 56.71 26.06 56.71ZM59.4493 48.52V42.22L91.6693 0.999996H101.389L69.4393 42.22L64.8493 40.78H115.159V48.52H59.4493ZM94.4593 64V48.52L94.7293 40.78V27.1H103.189V64H94.4593Z" fill="#1A68C4" fill-opacity="0.5"/>
</svg>
