<svg width="209" height="147" viewBox="0 0 209 147" fill="none" xmlns="http://www.w3.org/2000/svg">
<path d="M46.8828 0.25C60.75 0.25 71.5898 5.19792 79.4023 15.0938C88.7122 26.8125 93.3672 46.2461 93.3672 73.3945C93.3672 100.478 88.6797 119.944 79.3047 131.793C71.5573 141.559 60.75 146.441 46.8828 146.441C32.9505 146.441 21.7201 141.103 13.1914 130.426C4.66276 119.684 0.398438 100.576 0.398438 73.1016C0.398438 46.1484 5.08594 26.7474 14.4609 14.8984C22.2083 5.13281 33.0156 0.25 46.8828 0.25ZM46.8828 23.0039C43.5625 23.0039 40.6003 24.0781 37.9961 26.2266C35.3919 28.3099 33.3737 32.0859 31.9414 37.5547C30.0534 44.651 29.1094 56.5977 29.1094 73.3945C29.1094 90.1914 29.9557 101.747 31.6484 108.062C33.3411 114.312 35.457 118.479 37.9961 120.562C40.6003 122.646 43.5625 123.688 46.8828 123.688C50.2031 123.688 53.1654 122.646 55.7695 120.562C58.3737 118.414 60.3919 114.605 61.8242 109.137C63.7122 102.105 64.6562 90.1914 64.6562 73.3945C64.6562 56.5977 63.8099 45.0742 62.1172 38.8242C60.4245 32.5091 58.276 28.3099 55.6719 26.2266C53.1328 24.0781 50.2031 23.0039 46.8828 23.0039ZM112.215 107.184L139.559 104.352C140.34 110.536 142.651 115.452 146.492 119.098C150.333 122.678 154.76 124.469 159.773 124.469C165.503 124.469 170.353 122.158 174.324 117.535C178.296 112.848 180.281 105.816 180.281 96.4414C180.281 87.6523 178.296 81.0768 174.324 76.7148C170.418 72.2878 165.307 70.0742 158.992 70.0742C151.115 70.0742 144.051 73.5573 137.801 80.5234L115.535 77.3008L129.598 2.78906H202.156V28.4727H150.398L146.102 52.7891C152.221 49.7292 158.471 48.1992 164.852 48.1992C177.026 48.1992 187.345 52.6263 195.809 61.4805C204.272 70.3346 208.504 81.8255 208.504 95.9531C208.504 107.737 205.086 118.251 198.25 127.496C188.94 140.126 176.017 146.441 159.48 146.441C146.264 146.441 135.49 142.893 127.156 135.797C118.823 128.701 113.842 119.163 112.215 107.184Z" fill="#1A68C4" fill-opacity="0.1"/>
</svg>
