<svg width="105" height="65" viewBox="0 0 105 65" fill="none" xmlns="http://www.w3.org/2000/svg">
<path d="M26.06 64.72C21.14 64.72 16.73 63.46 12.83 60.94C8.99 58.42 5.93 54.76 3.65 49.96C1.43 45.16 0.32 39.34 0.32 32.5C0.32 25.66 1.43 19.84 3.65 15.04C5.93 10.24 8.99 6.58 12.83 4.06C16.73 1.54 21.14 0.28 26.06 0.28C30.92 0.28 35.3 1.54 39.2 4.06C43.1 6.58 46.16 10.24 48.38 15.04C50.6 19.84 51.71 25.66 51.71 32.5C51.71 39.34 50.6 45.16 48.38 49.96C46.16 54.76 43.1 58.42 39.2 60.94C35.3 63.46 30.92 64.72 26.06 64.72ZM26.06 56.71C29.36 56.71 32.24 55.81 34.7 54.01C37.22 52.21 39.17 49.51 40.55 45.91C41.99 42.31 42.71 37.84 42.71 32.5C42.71 27.16 41.99 22.69 40.55 19.09C39.17 15.49 37.22 12.79 34.7 10.99C32.24 9.19 29.36 8.29 26.06 8.29C22.76 8.29 19.85 9.19 17.33 10.99C14.81 12.79 12.83 15.49 11.39 19.09C10.01 22.69 9.32 27.16 9.32 32.5C9.32 37.84 10.01 42.31 11.39 45.91C12.83 49.51 14.81 52.21 17.33 54.01C19.85 55.81 22.76 56.71 26.06 56.71ZM80.6893 64.72C76.2493 64.72 71.9293 64.03 67.7293 62.65C63.5893 61.27 60.1993 59.41 57.5593 57.07L61.6993 49.96C63.7993 51.94 66.5293 53.56 69.8893 54.82C73.2493 56.08 76.8193 56.71 80.5993 56.71C85.3993 56.71 89.0893 55.69 91.6693 53.65C94.2493 51.61 95.5393 48.88 95.5393 45.46C95.5393 43.12 94.9693 41.08 93.8293 39.34C92.6893 37.6 90.7093 36.28 87.8893 35.38C85.1293 34.42 81.3193 33.94 76.4593 33.94H62.1493L65.4793 0.999996H101.029V8.83H68.8093L73.4893 4.41999L70.8793 30.43L66.1993 26.11H78.3493C84.6493 26.11 89.7193 26.92 93.5593 28.54C97.3993 30.16 100.189 32.41 101.929 35.29C103.669 38.11 104.539 41.38 104.539 45.1C104.539 48.7 103.669 52 101.929 55C100.189 57.94 97.5493 60.31 94.0093 62.11C90.5293 63.85 86.0893 64.72 80.6893 64.72Z" fill="#1A68C4" fill-opacity="0.5"/>
</svg>
