<svg width="208" height="147" viewBox="0 0 208 147" fill="none" xmlns="http://www.w3.org/2000/svg">
<path d="M46.8828 0.25C60.75 0.25 71.5898 5.19792 79.4023 15.0938C88.7122 26.8125 93.3672 46.2461 93.3672 73.3945C93.3672 100.478 88.6797 119.944 79.3047 131.793C71.5573 141.559 60.75 146.441 46.8828 146.441C32.9505 146.441 21.7201 141.103 13.1914 130.426C4.66276 119.684 0.398438 100.576 0.398438 73.1016C0.398438 46.1484 5.08594 26.7474 14.4609 14.8984C22.2083 5.13281 33.0156 0.25 46.8828 0.25ZM46.8828 23.0039C43.5625 23.0039 40.6003 24.0781 37.9961 26.2266C35.3919 28.3099 33.3737 32.0859 31.9414 37.5547C30.0534 44.651 29.1094 56.5977 29.1094 73.3945C29.1094 90.1914 29.9557 101.747 31.6484 108.062C33.3411 114.312 35.457 118.479 37.9961 120.562C40.6003 122.646 43.5625 123.688 46.8828 123.688C50.2031 123.688 53.1654 122.646 55.7695 120.562C58.3737 118.414 60.3919 114.605 61.8242 109.137C63.7122 102.105 64.6562 90.1914 64.6562 73.3945C64.6562 56.5977 63.8099 45.0742 62.1172 38.8242C60.4245 32.5091 58.276 28.3099 55.6719 26.2266C53.1328 24.0781 50.2031 23.0039 46.8828 23.0039ZM204.793 35.8945L178.23 38.8242C177.579 33.3555 175.887 29.319 173.152 26.7148C170.418 24.1107 166.87 22.8086 162.508 22.8086C156.714 22.8086 151.798 25.4128 147.762 30.6211C143.79 35.8294 141.284 46.6693 140.242 63.1406C147.078 55.0677 155.574 51.0312 165.73 51.0312C177.189 51.0312 186.987 55.3932 195.125 64.1172C203.328 72.8411 207.43 84.1042 207.43 97.9062C207.43 112.555 203.133 124.306 194.539 133.16C185.945 142.014 174.91 146.441 161.434 146.441C146.98 146.441 135.099 140.842 125.789 129.645C116.479 118.382 111.824 99.957 111.824 74.3711C111.824 48.1341 116.674 29.2214 126.375 17.6328C136.076 6.04427 148.673 0.25 164.168 0.25C175.04 0.25 184.025 3.3099 191.121 9.42969C198.283 15.4844 202.84 24.306 204.793 35.8945ZM142.586 95.7578C142.586 104.677 144.637 111.578 148.738 116.461C152.84 121.279 157.527 123.688 162.801 123.688C167.879 123.688 172.111 121.702 175.496 117.73C178.882 113.759 180.574 107.249 180.574 98.1992C180.574 88.8893 178.751 82.0859 175.105 77.7891C171.46 73.4271 166.902 71.2461 161.434 71.2461C156.16 71.2461 151.701 73.3294 148.055 77.4961C144.409 81.5977 142.586 87.6849 142.586 95.7578Z" fill="#1A68C4" fill-opacity="0.1"/>
</svg>
