<svg width="110" height="65" viewBox="0 0 110 65" fill="none" xmlns="http://www.w3.org/2000/svg">
<path d="M26.06 64.72C21.14 64.72 16.73 63.46 12.83 60.94C8.99 58.42 5.93 54.76 3.65 49.96C1.43 45.16 0.32 39.34 0.32 32.5C0.32 25.66 1.43 19.84 3.65 15.04C5.93 10.24 8.99 6.58 12.83 4.06C16.73 1.54 21.14 0.28 26.06 0.28C30.92 0.28 35.3 1.54 39.2 4.06C43.1 6.58 46.16 10.24 48.38 15.04C50.6 19.84 51.71 25.66 51.71 32.5C51.71 39.34 50.6 45.16 48.38 49.96C46.16 54.76 43.1 58.42 39.2 60.94C35.3 63.46 30.92 64.72 26.06 64.72ZM26.06 56.71C29.36 56.71 32.24 55.81 34.7 54.01C37.22 52.21 39.17 49.51 40.55 45.91C41.99 42.31 42.71 37.84 42.71 32.5C42.71 27.16 41.99 22.69 40.55 19.09C39.17 15.49 37.22 12.79 34.7 10.99C32.24 9.19 29.36 8.29 26.06 8.29C22.76 8.29 19.85 9.19 17.33 10.99C14.81 12.79 12.83 15.49 11.39 19.09C10.01 22.69 9.32 27.16 9.32 32.5C9.32 37.84 10.01 42.31 11.39 45.91C12.83 49.51 14.81 52.21 17.33 54.01C19.85 55.81 22.76 56.71 26.06 56.71ZM86.8093 64.72C81.2293 64.72 76.4593 63.49 72.4993 61.03C68.5393 58.57 65.5093 55.03 63.4093 50.41C61.3693 45.73 60.3493 40.03 60.3493 33.31C60.3493 26.17 61.6093 20.14 64.1293 15.22C66.6493 10.3 70.1593 6.58 74.6593 4.06C79.1593 1.54 84.3193 0.28 90.1393 0.28C93.1393 0.28 95.9893 0.579999 98.6893 1.18C101.449 1.78 103.819 2.71 105.799 3.97L102.379 10.99C100.759 9.85 98.8993 9.07 96.7993 8.65C94.7593 8.23 92.5993 8.02 90.3193 8.02C83.8993 8.02 78.7993 10.03 75.0193 14.05C71.2393 18.01 69.3493 23.92 69.3493 31.78C69.3493 33.04 69.4093 34.54 69.5293 36.28C69.6493 38.02 69.9493 39.73 70.4293 41.41L67.3693 38.35C68.2693 35.59 69.6793 33.28 71.5993 31.42C73.5793 29.5 75.9193 28.09 78.6193 27.19C81.3793 26.23 84.3493 25.75 87.5293 25.75C91.7293 25.75 95.4493 26.53 98.6893 28.09C101.929 29.65 104.479 31.87 106.339 34.75C108.199 37.57 109.129 40.93 109.129 44.83C109.129 48.85 108.139 52.36 106.159 55.36C104.179 58.36 101.509 60.67 98.1493 62.29C94.7893 63.91 91.0093 64.72 86.8093 64.72ZM86.4493 57.43C89.2093 57.43 91.6093 56.92 93.6493 55.9C95.7493 54.88 97.3993 53.47 98.5993 51.67C99.7993 49.81 100.399 47.65 100.399 45.19C100.399 41.47 99.1093 38.53 96.5293 36.37C93.9493 34.15 90.4393 33.04 85.9993 33.04C83.1193 33.04 80.5993 33.58 78.4393 34.66C76.2793 35.74 74.5693 37.21 73.3093 39.07C72.1093 40.87 71.5093 42.94 71.5093 45.28C71.5093 47.44 72.0793 49.45 73.2193 51.31C74.3593 53.11 76.0393 54.58 78.2593 55.72C80.4793 56.86 83.2093 57.43 86.4493 57.43Z" fill="#1A68C4" fill-opacity="0.5"/>
</svg>
