<svg width="77" height="48" viewBox="0 0 77 48" fill="none" xmlns="http://www.w3.org/2000/svg">
<path d="M12.8334 39.4243V27.9892L29.9789 35.8789C32.572 37.0725 35.5101 37.7006 38.5003 37.7006C41.4906 37.7006 44.4286 37.0725 47.0217 35.8789L64.1672 27.9926V39.4243C64.1677 39.6496 64.1128 39.8727 64.0057 40.081C63.8985 40.2893 63.7412 40.4786 63.5427 40.6381L63.5341 40.6415L63.5255 40.6518L63.4956 40.6724L63.3972 40.7478L63.055 41.0015C62.6369 41.2956 62.2074 41.5792 61.7674 41.8519C60.2308 42.7975 58.5981 43.6382 56.8864 44.3652C51.2249 46.7724 44.909 48.0209 38.5003 47.9997C32.0917 48.0209 25.7758 46.7724 20.1143 44.3652C18.404 43.6381 16.7727 42.7974 15.2376 41.8519C14.6731 41.5031 14.1279 41.1347 13.6034 40.7478L13.5051 40.6724C13.2954 40.5104 13.1281 40.3167 13.0128 40.1024C12.8975 39.8881 12.8365 39.6576 12.8334 39.4243ZM75.9269 18.6251L44.8914 32.9061C42.9466 33.8013 40.743 34.2724 38.5003 34.2724C36.2576 34.2724 34.0541 33.8013 32.1093 32.9061L4.27781 20.0995V35.9955C4.27781 36.4501 4.05247 36.8862 3.65134 37.2077C3.25022 37.5292 2.70618 37.7099 2.13891 37.7099C1.57163 37.7099 1.02759 37.5292 0.626472 37.2077C0.225349 36.8862 3.29093e-07 36.4501 3.29093e-07 35.9955V17.137C-0.000213558 16.8279 0.103835 16.5245 0.301134 16.2589C0.498434 15.9933 0.781643 15.7754 1.12079 15.6283L32.1093 1.36785C34.0537 0.471651 36.2574 0 38.5003 0C40.7433 0 42.947 0.471651 44.8914 1.36785L75.9269 15.6523C76.2531 15.8025 76.524 16.0191 76.7124 16.28C76.9008 16.541 77 16.8372 77 17.1387C77 17.4402 76.9008 17.7364 76.7124 17.9973C76.524 18.2583 76.2531 18.4748 75.9269 18.6251Z" fill="#1A68C4" fill-opacity="0.3"/>
</svg>
