<svg width="103" height="109" viewBox="0 0 103 109" fill="none" xmlns="http://www.w3.org/2000/svg">
<path d="M51.5 109H49.8906C49.3542 109 48.8714 108.908 48.4422 108.724C34.387 104.958 22.7995 97.4928 13.6797 86.3291C4.5599 75.1691 0 62.8369 0 49.3325V23.2882C0 20.9916 0.778937 18.9246 2.33681 17.0872C3.8904 15.2499 5.90104 13.9178 8.36875 13.091L46.9938 0.689001C48.4958 0.229667 49.9979 0 51.5 0C53.0021 0 54.5042 0.229667 56.0062 0.689001L94.6313 13.091C97.099 13.9178 99.1118 15.2499 100.67 17.0872C102.223 18.9246 103 20.9916 103 23.2882V49.3325C103 62.8369 98.4401 75.1691 89.3203 86.3291C80.2005 97.4928 68.613 104.958 54.5578 108.724C54.0214 108.908 53.0021 109 51.5 109Z" fill="#1A68C4" fill-opacity="0.3"/>
<path d="M52.0083 43.1639C50.8464 43.1639 49.7509 43.0219 48.7219 42.7381C47.6928 42.4542 46.6637 42.142 45.6346 41.8014C44.6055 41.4607 43.5848 41.1485 42.5723 40.8646C41.5598 40.5808 40.456 40.4389 39.261 40.4389V43.1639C39.9913 43.1639 40.6884 43.2277 41.3523 43.3555C42.0162 43.4832 42.6636 43.6535 43.2943 43.8664C43.925 44.0793 44.5723 44.2993 45.2363 44.5264C45.9002 44.7534 46.5724 44.9734 47.2529 45.1863C47.9335 45.3992 48.6721 45.5624 49.4688 45.676C50.2655 45.7895 51.112 45.8605 52.0083 45.8889C52.9212 45.8889 53.7677 45.825 54.5478 45.6973C55.3279 45.5695 56.0665 45.3992 56.7636 45.1863C57.4607 44.9734 58.1247 44.7534 58.7554 44.5264C59.3861 44.2993 60.0334 44.0793 60.6974 43.8664C61.3613 43.6535 62.0169 43.4903 62.6642 43.3767C63.3116 43.2632 64.0087 43.1922 64.7556 43.1639V40.4389C63.6103 40.4389 62.5148 40.5808 61.4692 40.8646C60.4235 41.1485 59.3944 41.4607 58.3819 41.8014C57.3694 42.142 56.3404 42.4542 55.2947 42.7381C54.249 43.0219 53.1535 43.1639 52.0083 43.1639ZM26.5137 44.5902C26.5137 47.1023 26.7294 49.657 27.161 52.2543C27.5925 54.8515 28.2233 57.4275 29.0532 59.9822C29.8831 62.5369 30.9288 65.0135 32.1902 67.4121C33.4517 69.8107 34.8874 72.0744 36.4974 74.2033C36.8958 74.7142 37.402 75.1187 38.0161 75.4168C38.6302 75.7148 39.3025 75.8639 40.0328 75.8639C40.9457 75.8639 41.7673 75.6439 42.4976 75.2039C43.2279 74.7639 43.7341 74.1678 44.0163 73.4156L48.448 62.0898C49.0289 62.1466 49.6182 62.1821 50.2157 62.1963C50.8132 62.2105 51.4107 62.2247 52.0083 62.2389C52.6058 62.2389 53.2033 62.2318 53.8009 62.2176C54.3984 62.2034 54.9876 62.1608 55.5686 62.0898L60.0002 73.4156C60.2824 74.1536 60.7886 74.7426 61.519 75.1826C62.2493 75.6226 63.0709 75.8497 63.9838 75.8639C64.7141 75.8639 65.3863 75.7148 66.0004 75.4168C66.6146 75.1187 67.1208 74.7142 67.5192 74.2033C69.1458 72.0886 70.5815 69.832 71.8263 67.4334C73.0712 65.0348 74.1086 62.5582 74.9385 60.0035C75.7684 57.4488 76.4074 54.8728 76.8556 52.2756C77.3037 49.6783 77.5195 47.1165 77.5029 44.5902C77.5029 43.0006 77.2207 41.4678 76.6564 39.9918C76.092 38.5157 75.2704 37.2029 74.1916 36.0533C73.1127 34.9037 71.7849 33.9883 70.208 33.307C68.6312 32.6258 66.8303 32.278 64.8054 32.2639C63.6269 32.2639 62.5231 32.4058 61.4941 32.6896C60.465 32.9735 59.4359 33.2857 58.4068 33.6264C57.3777 33.967 56.357 34.2792 55.3445 34.5631C54.332 34.8469 53.2199 34.9889 52.0083 34.9889C50.8298 34.9889 49.726 34.8469 48.697 34.5631C47.6679 34.2792 46.6388 33.967 45.6097 33.6264C44.5806 33.2857 43.5599 32.9735 42.5474 32.6896C41.5349 32.4058 40.4228 32.2639 39.2112 32.2639C37.1862 32.2639 35.3853 32.6045 33.8085 33.2857C32.2317 33.967 30.9039 34.8824 29.825 36.032C28.7461 37.1816 27.9245 38.4945 27.3602 39.9705C26.7958 41.4465 26.5137 42.9864 26.5137 44.5902ZM29.7005 44.6328C29.7005 43.3129 29.908 42.071 30.3229 40.9072C30.7379 39.7434 31.3603 38.7215 32.1902 37.8416C33.0201 36.9616 34.0658 36.2662 35.3272 35.7553C36.5887 35.2443 38.041 34.9889 39.6842 34.9889C40.6469 34.9889 41.5681 35.1308 42.4478 35.4146C43.3275 35.6985 44.257 36.0107 45.2363 36.3514C46.2156 36.692 47.2446 37.0042 48.3235 37.2881C49.4024 37.5719 50.6306 37.7139 52.0083 37.7139C53.3859 37.7139 54.6142 37.5719 55.693 37.2881C56.7719 37.0042 57.801 36.692 58.7803 36.3514C59.7596 36.0107 60.7057 35.6985 61.6185 35.4146C62.5314 35.1308 63.5439 34.9889 64.656 34.9889C66.266 34.9889 67.6768 35.2585 68.8885 35.7978C70.1002 36.3372 71.1043 37.0539 71.901 37.948C72.6977 38.8422 73.3036 39.864 73.7185 41.0137C74.1335 42.1633 74.3327 43.3696 74.3161 44.6328C74.3161 46.0237 74.2248 47.521 74.0422 49.1248C73.8596 50.7286 73.5774 52.3891 73.1957 54.1064C72.8139 55.8237 72.3575 57.534 71.8263 59.2371C71.2952 60.9402 70.6728 62.615 69.9591 64.2613C69.2454 65.9077 68.4569 67.4405 67.5938 68.8598C66.7307 70.279 65.8013 71.5706 64.8054 72.7344C64.5564 73.004 64.241 73.1389 63.8593 73.1389C63.6601 73.1389 63.4028 72.8834 63.0875 72.3724C62.7721 71.8615 62.4402 71.1945 62.0916 70.3713C61.743 69.5481 61.3696 68.654 60.9712 67.6889C60.5729 66.7238 60.216 65.7799 59.9007 64.8574C59.5853 63.9349 59.2782 63.0975 58.9795 62.3453C58.6807 61.5931 58.4815 61.0467 58.3819 60.706C58.2491 60.337 58.0002 60.0177 57.635 59.748C57.2699 59.4784 56.8383 59.3364 56.3404 59.3223C55.6101 59.3223 54.888 59.3506 54.1743 59.4074C53.4606 59.4642 52.7386 59.4997 52.0083 59.5139C51.278 59.5139 50.5559 59.4855 49.8422 59.4287C49.1285 59.3719 48.4065 59.3364 47.6762 59.3223C47.1948 59.3223 46.7716 59.4571 46.4064 59.7267C46.0413 59.9964 45.784 60.3228 45.6346 60.706C45.5018 61.0467 45.3027 61.5931 45.0371 62.3453C44.7715 63.0975 44.4728 63.9278 44.1408 64.8361C43.8088 65.7445 43.4437 66.6954 43.0453 67.6889C42.647 68.6823 42.2818 69.5765 41.9499 70.3713C41.6179 71.1661 41.2776 71.826 40.9291 72.3512C40.5805 72.8763 40.3232 73.1389 40.1573 73.1389C39.7755 73.1389 39.4601 73.004 39.2112 72.7344C38.2153 71.5989 37.2858 70.3074 36.4227 68.8598C35.5596 67.4121 34.7795 65.8793 34.0824 64.2613C33.3853 62.6433 32.7628 60.9757 32.2151 59.2584C31.6674 57.5411 31.2109 55.8308 30.8458 54.1277C30.4806 52.4246 30.1984 50.764 29.9993 49.1461C29.8001 47.5281 29.7005 46.0237 29.7005 44.6328Z" fill="white" fill-opacity="0.5"/>
</svg>
