<svg width="70" height="70" viewBox="0 0 70 70" fill="none" xmlns="http://www.w3.org/2000/svg">
<path d="M15.3053 7.54798V0H7.65264V7.54798H0V15.096H7.65264V22.6428H15.3053V15.096H22.9579V7.54798H15.3053ZM39.4555 30.9767C44.735 30.9767 49.0182 26.7487 49.0182 21.5426C49.0182 20.304 48.7708 19.0776 48.2903 17.9333C47.8097 16.789 47.1053 15.7494 46.2173 14.8736C45.3293 13.9979 44.2751 13.3032 43.1149 12.8294C41.9547 12.3555 40.7113 12.1117 39.4555 12.1118C38.1998 12.1117 36.9564 12.3555 35.7962 12.8294C34.636 13.3032 33.5818 13.9979 32.6938 14.8736C31.8058 15.7494 31.1014 16.789 30.6208 17.9333C30.1402 19.0776 29.8929 20.304 29.8929 21.5426C29.8929 26.7475 34.1761 30.9767 39.4555 30.9767ZM24.477 70V61.6299L15.9668 63.9661C15.3268 64.2184 14.644 64.3481 13.9548 64.3484C12.9659 64.3476 11.9958 64.0816 11.1483 63.5789C10.3009 63.0762 9.60799 62.3557 9.14374 61.4945C8.67949 60.6333 8.46138 59.6638 8.51276 58.6898C8.56413 57.7157 8.88305 56.7738 9.4354 55.9647L23.0863 37.5024C24.5687 35.5009 26.6381 33.2699 31.0027 33.2699H47.506C51.8683 33.2699 53.94 35.5009 55.4201 37.5024L69.071 55.9647C69.6228 56.7737 69.9414 57.7154 69.9927 58.6891C70.0439 59.6628 69.826 60.6319 69.3621 61.4929C68.8981 62.3539 68.2058 63.0744 67.3589 63.5773C66.512 64.0803 65.5425 64.3468 64.5539 64.3484C63.8647 64.3483 63.1818 64.2186 62.5419 63.9661L54.0294 61.6299V70H24.477ZM39.2538 64.1527L50.2816 60.5534L50.0328 60.4856C42.4249 58.2772 45.3873 48.3625 52.9941 50.5765L54.034 50.9214V39.7244L39.2538 44.4873L24.4747 39.7244V50.9214L25.5088 50.5765C33.1213 48.3625 36.0838 58.2772 28.4713 60.4856L28.2271 60.5534L39.2538 64.1527Z" fill="#1A68C4" fill-opacity="0.3"/>
</svg>
