<svg width="40" height="40" viewBox="0 0 40 40" fill="none" xmlns="http://www.w3.org/2000/svg">
<path d="M17.279 3.15774C10.4338 8.06978 7.01208 13.9896 7.01208 20.9093C7.01208 23.0632 7.34765 24.1392 8.0153 24.1392L8.70382 23.9306C9.24628 23.6967 9.68269 23.5797 10.0183 23.5797C11.9777 23.5797 13.6173 24.3789 14.93 25.9773C16.2445 27.5757 16.9017 29.5444 16.9017 31.8951C16.9017 34.1504 16.1888 36.0665 14.7718 37.6395C13.353 39.2125 11.6422 39.9981 9.63922 39.9981C6.84343 39.9981 4.53621 38.7116 2.71929 36.1327C0.905851 33.5598 0 30.3241 0 26.4315C0 22.0262 0.768495 17.9972 2.31244 14.3404C3.85986 10.6856 6.21403 7.38171 9.38538 4.42863C12.5567 1.47751 14.5805 0 15.4568 0C16.041 0 16.5209 0.315774 16.8965 0.947322C17.272 1.57692 17.4598 2.1266 17.4598 2.59442L17.2738 3.15579L17.279 3.15774ZM39.8122 3.15774C32.9671 8.06978 29.5471 13.9876 29.5471 20.9113C29.5471 23.0652 29.8826 24.1411 30.5503 24.1411L31.2388 23.9326C31.7813 23.6987 32.2177 23.5817 32.5532 23.5817C34.471 23.5817 36.1001 24.3809 37.4337 25.9792C38.7725 27.5776 39.4367 29.5463 39.4367 31.8971C39.4367 34.1523 38.7238 36.0684 37.3068 37.6414C35.888 39.2145 34.1772 40 32.1742 40C29.3784 40 27.0712 38.7135 25.2543 36.1347C23.4408 33.5617 22.535 30.326 22.535 26.4334C22.535 21.9814 23.3139 17.9153 24.8822 14.2391C26.447 10.5609 28.8029 7.2667 31.9534 4.36236C35.1091 1.45607 37.1208 0.00195001 37.9953 0.00195001C38.5812 0.00195001 39.0611 0.317723 39.4384 0.949272C39.8122 1.58082 40 2.1305 40 2.59831L39.8122 3.15774Z" fill="white"/>
</svg>
