<svg width="40" height="40" viewBox="0 0 40 40" fill="none" xmlns="http://www.w3.org/2000/svg">
<path d="M22.721 36.8423C29.5662 31.9302 32.9879 26.0104 32.9879 19.0907C32.9879 16.9368 32.6524 15.8608 31.9847 15.8608L31.2962 16.0694C30.7537 16.3033 30.3173 16.4203 29.9817 16.4203C28.0223 16.4203 26.3827 15.6211 25.07 14.0227C23.7555 12.4243 23.0983 10.4556 23.0983 8.10487C23.0983 5.84962 23.8112 3.93353 25.2282 2.36051C26.647 0.787487 28.3578 0.0019455 30.3608 0.0019455C33.1566 0.0019455 35.4638 1.28843 37.2807 3.86726C39.0941 6.44023 40 9.67594 40 13.5685C40 17.9738 39.2315 22.0028 37.6876 25.6596C36.1401 29.3144 33.786 32.6183 30.6146 35.5714C27.4433 38.5225 25.4195 40 24.5432 40C23.959 40 23.4791 39.6842 23.1035 39.0527C22.728 38.4231 22.5402 37.8734 22.5402 37.4056L22.7262 36.8442L22.721 36.8423ZM0.187778 36.8423C7.03295 31.9302 10.4529 26.0124 10.4529 19.0887C10.4529 16.9348 10.1174 15.8589 9.44971 15.8589L8.76119 16.0674C8.21873 16.3013 7.78232 16.4183 7.44675 16.4183C5.52899 16.4183 3.89985 15.6191 2.56629 14.0208C1.2275 12.4224 0.563332 10.4537 0.563332 8.10292C0.563332 5.84767 1.27619 3.93158 2.69321 2.35856C4.11197 0.785538 5.82283 0 7.82578 0C10.6216 0 12.9288 1.28649 14.7457 3.86531C16.5592 6.43828 17.465 9.67399 17.465 13.5666C17.465 18.0186 16.6861 22.0847 15.1178 25.7609C13.553 29.4391 11.1971 32.7333 8.0466 35.6376C4.8909 38.5439 2.87925 39.998 2.0047 39.998C1.41876 39.998 0.938885 39.6823 0.561592 39.0507C0.187778 38.4192 0 37.8695 0 37.4017L0.187778 36.8423Z" fill="white"/>
</svg>
