<svg width="73" height="62" viewBox="0 0 73 62" fill="none" xmlns="http://www.w3.org/2000/svg">
<path d="M54.5995 0.000552422C52.1849 -0.0213158 50.2839 0.60579 49.5645 1.93202C46.0424 8.42766 42.0276 13.3428 37.3346 17.2895C37.8097 17.4242 38.2717 17.5898 38.7166 17.7849C40.7247 18.6633 42.6237 20.1131 44.1767 21.8237C45.7298 23.5341 46.9368 25.5051 47.3898 27.5199C47.5052 28.0316 47.5692 28.5524 47.5689 29.0707C53.5946 25.8808 60.7209 23.6727 69.3516 22.3515C71.6571 21.9984 73.0088 18.6023 72.6614 14.6707L67.2254 14.5398L71.9507 11.2906C71.3093 9.39091 70.2478 7.5253 68.6796 5.95839C66.2786 3.56022 63.0467 1.84979 59.9093 0.892565L55.8948 2.93456L56.3296 0.119191C55.7304 0.0471696 55.1529 0.00526659 54.5997 0.000421547L54.5995 0.000552422ZM35.0202 19.4012C34.8558 19.408 34.7016 19.4308 34.5563 19.4627C32.7045 20.8054 30.751 22.0289 28.6901 23.1659C28.8203 23.2091 28.9484 23.2532 29.0767 23.301C31.2605 24.1119 33.3193 25.5461 35.0251 27.3113C37.0903 29.4486 38.6773 32.1485 38.9872 34.8735C40.5851 33.516 42.2714 32.262 44.0657 31.1127C44.699 30.2543 44.828 29.2182 44.5489 27.9781C44.2112 26.4774 43.2126 24.779 41.8816 23.3131C40.5503 21.8473 38.885 20.6127 37.3878 19.9576C36.452 19.5482 35.6631 19.3748 35.02 19.401L35.0202 19.4012ZM25.4478 25.0688C25.2337 25.0758 25.0319 25.1042 24.8343 25.1424C19.1132 27.8611 12.6053 30.1164 5.14869 32.4755C5.23745 32.481 5.32496 32.4876 5.41465 32.4959C7.05784 32.6473 8.67351 33.1517 10.232 33.9199L16.0593 31.7676L13.6142 36.0522C14.5412 36.7635 15.4393 37.555 16.296 38.4092C19.5061 41.6088 22.1662 45.7246 23.5779 49.9446C23.5783 49.9459 23.5775 49.9475 23.5779 49.9488C24.0387 51.3248 24.3681 52.6877 24.5539 54.0082C27.7995 47.6653 31.4162 42.3198 35.7401 37.9016C36.8689 35.0889 35.4021 31.5628 32.7925 28.8624C31.3328 27.3515 29.5491 26.1494 27.9172 25.5435C26.9993 25.2025 26.1746 25.045 25.4478 25.0688ZM47.3467 32.2505C46.2164 32.9118 45.1105 33.6267 44.032 34.3865C50.0871 35.5991 53.4568 39.0642 56.5033 42.5257C58.1212 44.3642 59.6882 46.2066 61.6252 47.8536C65.3656 49.0514 68.3003 48.6891 71.5066 45.8976C57.2557 42.2598 56.6457 33.7705 47.3465 32.2502L47.3467 32.2505ZM4.35129 34.898C2.67006 34.9274 1.52785 35.6516 0.741733 37.0709C-0.156636 38.693 -0.358266 41.3228 0.809459 44.5432C1.69855 46.9958 3.36386 49.4822 5.25492 51.3033C7.14598 53.1243 9.2597 54.1941 10.7246 54.2373H10.7296C11.3043 54.2543 11.7428 54.148 12.0921 53.8772L12.0632 53.8526L12.3868 53.5784C12.5094 53.4254 12.6219 53.2447 12.725 53.0301C13.1595 52.1266 13.2322 50.6008 12.4399 48.7089C11.3753 46.1663 9.48344 44.5275 7.27926 44.1545L3.72784 43.5569L6.79142 41.92L12.7398 38.7529C10.1653 36.5501 7.39755 35.1379 5.10509 34.9267C4.84223 34.9026 4.59127 34.8939 4.35114 34.8981L4.35129 34.898ZM40.8814 35.6059L37.0884 38.9287C52.6192 41.2697 45.6624 57.3929 61.7217 62L57.8901 54.4993C62.9565 56.6141 68.3102 57.4618 73 56.0746C52.0066 50.5817 58.1066 39.4466 40.8814 35.6059ZM14.6771 40.6107L10.6618 42.7508C12.6998 43.8638 14.2507 45.7056 15.1653 47.8904C15.5627 48.839 15.8043 49.7505 15.8997 50.6115L19.5241 47.5508C18.2748 45.0379 16.5809 42.6316 14.6774 40.6106L14.6771 40.6107ZM20.611 50.0879L14.107 55.5876L14.0829 55.5672C13.425 56.0834 12.6208 56.4531 11.7348 56.6067C15.3326 58.5543 18.6378 59.14 20.5193 57.8588C21.178 57.4102 21.6083 56.7641 21.829 55.9724C21.7656 54.3114 21.4266 52.4872 20.7996 50.6158C20.7406 50.4396 20.675 50.2641 20.611 50.0879Z" fill="#1A68C4" fill-opacity="0.3"/>
</svg>
