<svg width="30" height="30" viewBox="0 0 30 30" fill="none" xmlns="http://www.w3.org/2000/svg">
<path d="M29.3049 0.694663C28.4264 -0.184339 27.0408 -0.224839 26.1003 0.548663L25.6858 0.134162L24.5513 1.27466L24.6473 1.37166L24.2443 1.74867L24.1528 1.66067C23.2883 0.795163 22.2918 -0.102339 20.9653 0.433662C19.1608 1.16516 18.2988 5.07017 17.3008 6.54768C16.4298 7.83268 14.2447 9.19368 12.2912 10.2192C12.3887 10.3157 12.5812 10.6047 12.7092 10.6372C13.2522 10.3977 13.8052 10.1842 14.3427 9.93419C15.4648 9.41268 16.5568 8.80518 17.5218 8.02468C19.4968 6.42618 20.2928 1.63317 21.7023 1.53917C22.2918 1.49667 22.8673 2.04417 23.3553 2.58017L13.1472 12.1252L13.5502 12.5282L3.70367 22.3917L0.609644 27.8517L1.01865 28.2607L0.139641 29.4272C-0.00986099 29.6032 -0.0448608 29.8342 0.0616398 29.9407C0.16614 30.0442 0.397642 30.0092 0.572144 29.8587L1.74015 28.9827L2.14866 29.3907L7.6087 26.2972L17.4563 16.4337L17.8753 16.8527L28.6219 5.34517L28.7314 5.45467L29.8649 4.31417L29.4514 3.90017C30.2254 2.95967 30.1839 1.57417 29.3049 0.694663ZM2.23366 28.7687L1.23215 27.7672L3.81467 23.2102L6.79069 26.1867L2.23366 28.7687ZM17.8758 16.1462L13.8567 12.1267L14.6058 11.3867L18.6203 15.4007L17.8758 16.1462ZM28.7304 4.74667L25.2578 1.27416L25.6868 0.842663L29.1584 4.31517L28.7304 4.74667Z" fill="#FFFDFD"/>
</svg>
