<svg width="60" height="55" viewBox="0 0 60 55" fill="none" xmlns="http://www.w3.org/2000/svg">
<path d="M58.6097 1.27355C56.8527 -0.337955 54.0817 -0.412205 52.2007 1.00588L51.3717 0.245963L49.1027 2.33688L49.2947 2.51472L48.4887 3.20589L48.3057 3.04455C46.5766 1.4578 44.5836 -0.187621 41.9306 0.795048C38.3216 2.13613 36.5976 9.29532 34.6015 12.0041C32.8595 14.3599 28.4895 16.8551 24.5825 18.7352C24.7775 18.9121 25.1625 19.4419 25.4185 19.5015C26.5045 19.0624 27.6105 18.671 28.6855 18.2127C30.9295 17.2566 33.1135 16.1428 35.0435 14.7119C38.9936 11.7813 40.5856 2.99414 43.4046 2.8218C44.5836 2.74389 45.7346 3.74764 46.7106 4.73031L26.2945 22.2295L27.1005 22.9684L7.40734 41.0515L1.21929 51.0615L2.0373 51.8113L0.279282 53.9499C-0.019722 54.2726 -0.0897217 54.6961 0.12328 54.8913C0.332279 55.0811 0.795284 55.0169 1.14429 54.741L3.48031 53.135L4.29731 53.883L15.2174 48.2116L34.9125 30.1285L35.7506 30.8966L57.2437 9.79949L57.4627 10.0002L59.7297 7.90931L58.9027 7.15031C60.4507 5.42606 60.3677 2.88597 58.6097 1.27355ZM4.46732 52.7427L2.4643 50.9066L7.62934 42.5521L13.5814 48.009L4.46732 52.7427ZM35.7516 29.6014L27.7135 22.2323L29.2115 20.8756L37.2406 28.2346L35.7516 29.6014ZM57.4607 8.70223L50.5157 2.33597L51.3737 1.54488L58.3167 7.91115L57.4607 8.70223Z" fill="#1A68C4" fill-opacity="0.3"/>
</svg>
